<?xml version="1.0" encoding="UTF-8" standalone="no"?>
<!DOCTYPE svg PUBLIC "-//W3C//DTD SVG 1.1//EN" "http://www.w3.org/Graphics/SVG/1.1/DTD/svg11.dtd">
<svg version="1.1" xmlns="http://www.w3.org/2000/svg" xmlns:xlink="http://www.w3.org/1999/xlink" preserveAspectRatio="xMidYMid meet" viewBox="0.6196401654737829 -0.10317672055514304 52.97445506692079 39.417667304014714" width="64" height="64"><defs><path d="M50.59 2.83C50.59 9.53 50.59 27.68 50.59 34.38C50.59 35.45 49.73 36.31 48.65 36.31C39.25 36.31 12.97 36.31 3.55 36.31C2.49 36.31 1.62 35.45 1.62 34.38C1.62 27.68 1.62 9.53 1.62 2.83C1.62 1.76 2.49 0.9 3.55 0.9C12.97 0.9 39.25 0.9 48.65 0.9C49.73 0.9 50.59 1.76 50.59 2.83Z" id="b18b2hX50m"></path><path d="M10.02 21.21L10.02 6.89L45.82 6.89L45.82 14.05L38.66 14.05L38.66 28.37L31.5 28.37L31.5 14.05L17.18 14.05L17.18 28.37L2.86 28.37L2.86 21.21L10.02 21.21Z" id="dG4q3qLGb"></path><path d="M10.02 21.21L10.02 6.89L45.82 6.89L45.82 14.05L38.66 14.05L38.66 28.37L31.5 28.37L31.5 14.05L17.18 14.05L17.18 28.37L2.86 28.37L2.86 21.21L10.02 21.21Z" id="a97D4aDmlD"></path></defs><g><g><use xlink:href="#b18b2hX50m" opacity="1" fill="#e73d3d" fill-opacity="1"></use><g><use xlink:href="#b18b2hX50m" opacity="1" fill-opacity="0" stroke="#000000" stroke-width="1" stroke-opacity="0"></use></g></g><g><use xlink:href="#dG4q3qLGb" opacity="1" fill="#d7d7d7" fill-opacity="1"></use><g><use xlink:href="#dG4q3qLGb" opacity="1" fill-opacity="0" stroke="#000000" stroke-width="1" stroke-opacity="0"></use></g></g><g><use xlink:href="#a97D4aDmlD" opacity="1" fill="#000000" fill-opacity="0"></use><g><use xlink:href="#a97D4aDmlD" opacity="1" fill-opacity="0" stroke="#000000" stroke-width="1" stroke-opacity="0"></use></g></g></g></svg>